<?xml version="1.0" encoding="UTF-8"?>
<svg version="1.1" xmlns="http://www.w3.org/2000/svg" width="512" height="512">
<path d="M0 0 C168.96 0 337.92 0 512 0 C512 168.96 512 337.92 512 512 C343.04 512 174.08 512 0 512 C0 343.04 0 174.08 0 0 Z " fill="#FBFDFB" transform="translate(0,0)"/>
<path d="M0 0 C168.96 0 337.92 0 512 0 C512 168.96 512 337.92 512 512 C343.04 512 174.08 512 0 512 C0 343.04 0 174.08 0 0 Z M200 14 C199.11393066 14.20818359 198.22786133 14.41636719 197.31494141 14.63085938 C192.13439554 15.87443185 187.06123891 17.33974526 182 19 C181.32324219 19.21736816 180.64648438 19.43473633 179.94921875 19.65869141 C134.68872599 34.35130429 92.36663387 62.24289931 63 100 C62.23558594 100.94746094 61.47117188 101.89492187 60.68359375 102.87109375 C39.06771837 130.10779065 21.87287293 163.31273661 14.54882812 197.46289062 C14.1629992 199.24649123 13.75900133 201.02621094 13.34179688 202.80273438 C5.33394112 237.71163203 5.58849048 277.19911441 14 312 C14.22993652 312.99966797 14.45987305 313.99933594 14.69677734 315.02929688 C17.8483777 328.52787107 22.40856227 341.32917948 28 354 C28.38172363 354.86512207 28.76344727 355.73024414 29.15673828 356.62158203 C39.88835227 380.62361333 53.8439673 402.90709017 72 422 C73.17399076 423.34782201 74.34120582 424.70159055 75.5 426.0625 C82.94515591 434.58615981 91.11228144 442.01507213 100 449 C100.95132813 449.76828125 101.90265625 450.5365625 102.8828125 451.328125 C126.27566379 469.8748869 153.28907669 484.54684878 182 493 C183.21042969 493.38542969 184.42085937 493.77085937 185.66796875 494.16796875 C190.40160623 495.63080408 195.18289618 496.84505173 200 498 C200.9590625 498.23428711 201.918125 498.46857422 202.90625 498.70996094 C237.68639496 506.80117522 277.32659172 506.38069776 312 498 C312.99966797 497.77006348 313.99933594 497.54012695 315.02929688 497.30322266 C328.52787107 494.1516223 341.32917948 489.59143773 354 484 C354.86512207 483.61827637 355.73024414 483.23655273 356.62158203 482.84326172 C380.62309634 472.11187888 402.90816445 458.1565936 422 440 C423.36853124 438.80505084 424.74310492 437.61696905 426.125 436.4375 C434.28670306 429.30639896 441.25603132 421.46634917 448 413 C448.63421875 412.24460937 449.2684375 411.48921875 449.921875 410.7109375 C472.41220231 383.66678359 490.17497803 348.97298232 497.46728516 314.48876953 C497.84473688 312.72536767 498.24229619 310.96621499 498.65380859 309.21044922 C506.66454728 274.29656166 506.41290134 234.80664396 498 200 C497.77006348 199.00033203 497.54012695 198.00066406 497.30322266 196.97070312 C485.298608 145.55391054 454.46403324 96.68923038 413 64 C412.24847656 63.36964844 411.49695313 62.73929688 410.72265625 62.08984375 C383.95318503 39.80483095 348.65944148 21.26882614 314.37597656 14.484375 C312.65910301 14.13436708 310.94798554 13.75570921 309.24121094 13.359375 C274.34701155 5.34539619 234.78766425 5.54306994 200 14 Z " fill="#5C995C" transform="translate(0,0)"/>
<path d="M0 0 C0 22.44 0 44.88 0 68 C-4 67 -4 67 -7.5625 65.4375 C-10.84029583 63.80709693 -10.84029583 63.80709693 -14 64 C-15.92194004 68.51602137 -17.8424522 73.03264646 -19.76171875 77.54980469 C-20.4130319 79.08219263 -21.06471575 80.61442307 -21.71679688 82.14648438 C-26.56473093 93.52415765 -26.56473093 93.52415765 -31.19067383 104.9934082 C-32.0512907 107.1271669 -32.98261672 109.21940188 -33.9375 111.3125 C-35.59162566 114.96966845 -37.02915764 118.67898632 -38.4375 122.4375 C-40.27943249 127.29299177 -42.37059016 131.87426843 -44.75 136.484375 C-48.14633942 143.31950808 -50.81622212 150.4878282 -53.5 157.625 C-55.29694345 162.35113026 -57.30269588 166.83789993 -59.69140625 171.29296875 C-60.8451228 173.67961225 -61.83682185 176.05523639 -62.80859375 178.51953125 C-65.63531324 185.68130404 -68.80473663 192.68912185 -71.93359375 199.72265625 C-74.42212912 205.34081783 -76.82092812 210.97482252 -79.07519531 216.69091797 C-80.50807484 220.26857756 -82.06250026 223.78996186 -83.625 227.3125 C-85.48431084 231.51598507 -87.32692029 235.71790984 -89 240 C-94.74860596 238.32841954 -99.74547449 236.21109892 -104.859375 233.0859375 C-107.23017789 231.88323093 -109.38413877 231.41158656 -112 231 C-112.27851807 231.87922119 -112.55703613 232.75844238 -112.84399414 233.66430664 C-113.8949698 236.69693188 -115.09504602 239.48759986 -116.49609375 242.37109375 C-116.97240234 243.35787109 -117.44871094 244.34464844 -117.93945312 245.36132812 C-118.68098633 246.8840332 -118.68098633 246.8840332 -119.4375 248.4375 C-122.41685526 254.580218 -125.34089055 260.71031979 -128 267 C-129.64770281 270.67533079 -131.3239266 274.33753541 -133 278 C-133.46631836 279.0204541 -133.93263672 280.0409082 -134.41308594 281.09228516 C-145.30923398 304.90062474 -145.30923398 304.90062474 -150.59765625 315.16796875 C-151.86954688 317.7365501 -153.00110644 320.33610429 -154.11401367 322.97631836 C-156.4148204 328.23159171 -158.99705354 333.36610311 -161.50390625 338.52539062 C-161.93832031 339.42837891 -162.37273437 340.33136719 -162.8203125 341.26171875 C-163.21492676 342.07600342 -163.60954102 342.89028809 -164.01611328 343.72924805 C-164.92357195 345.82360861 -165.47759774 347.78643451 -166 350 C-148.40580361 349.98617983 -130.81193541 349.94388471 -113.21790314 349.86790943 C-105.04823333 349.83329104 -96.8787317 349.80790806 -88.70898438 349.80444336 C-81.5862477 349.80139906 -74.4638108 349.78084629 -67.34118986 349.73947543 C-63.57150018 349.71818561 -59.80223623 349.70552386 -56.03248596 349.71384621 C-52.4798038 349.72141224 -48.92798238 349.70546213 -45.37545776 349.67193985 C-43.45903752 349.65984332 -41.54251091 349.67226277 -39.62609863 349.68556213 C-32.47627283 349.59095408 -27.4858552 348.79610674 -22 344 C-20.1396089 342.02631535 -20.1396089 342.02631535 -19.0625 339.9375 C-18.68222656 339.28652344 -18.30195313 338.63554687 -17.91015625 337.96484375 C-16.35337869 334.60407502 -15.87503054 331.52504476 -15.87530136 327.8400116 C-15.87171494 326.60081876 -15.87171494 326.60081876 -15.86805606 325.33659172 C-15.87048855 324.43427378 -15.87292104 323.53195583 -15.87542725 322.60229492 C-15.8740171 321.6395421 -15.87260695 320.67678928 -15.87115407 319.68486214 C-15.86749629 316.45004976 -15.87083972 313.21528108 -15.87402344 309.98046875 C-15.87262884 307.66440293 -15.87072963 305.34833737 -15.86836243 303.03227234 C-15.8638623 298.03898921 -15.86200927 293.0457143 -15.86190033 288.0524292 C-15.86076051 280.15163216 -15.84798775 272.25087731 -15.83233643 264.35009766 C-15.82973064 263.0033099 -15.82713183 261.65652213 -15.8245399 260.30973434 C-15.8206014 258.2685506 -15.81665486 256.22736688 -15.81267868 254.18618321 C-15.79773344 246.49082359 -15.78410963 238.79546223 -15.77197266 231.10009766 C-15.7708591 230.39673169 -15.76974553 229.69336572 -15.76859823 228.96868563 C-15.75104632 217.58625226 -15.74815258 206.20385447 -15.74982306 194.82140982 C-15.75110457 183.12327605 -15.73330276 171.42527409 -15.69880509 159.72719097 C-15.68036386 153.16402328 -15.67098634 146.60112132 -15.68328094 140.03793335 C-15.69474326 133.85886314 -15.68295312 127.68026793 -15.65364647 121.50126076 C-15.64702258 119.23905101 -15.64884391 116.97679755 -15.65994453 114.71460533 C-15.71262024 103.00380685 -15.75151677 93.4579899 -10 83 C-9.31311395 81.34156406 -8.64040529 79.6769327 -8 78 C-5.1375259 78.62651427 -2.71918347 79.52170517 -0.109375 80.84765625 C0.95410156 81.38422852 0.95410156 81.38422852 2.0390625 81.93164062 C3.13347656 82.49141602 3.13347656 82.49141602 4.25 83.0625 C4.99507812 83.43955078 5.74015625 83.81660156 6.5078125 84.20507812 C8.34037531 85.13310673 10.17043676 86.06607179 12 87 C12.09159168 123.64665066 12.16205707 160.29328123 12.20426132 196.94002282 C12.20926404 201.26828363 12.21444134 205.59654421 12.21972656 209.92480469 C12.2207758 210.78646925 12.22182505 211.64813382 12.22290608 212.53590943 C12.24030272 226.48071969 12.27183632 240.42546387 12.30861118 254.37023495 C12.34604125 268.68301618 12.36824022 282.99576284 12.37635398 297.30859101 C12.38183747 306.13761469 12.39914527 314.96645157 12.43166587 323.79541774 C12.45283926 329.85298446 12.45919366 335.91045487 12.45400551 341.96805589 C12.4514481 345.4609824 12.45531812 348.95358291 12.4768219 352.44645119 C12.4967577 356.23985879 12.49192485 360.03247074 12.48101807 363.82589722 C12.49266943 364.92125286 12.5043208 366.0166085 12.51632524 367.14515674 C12.43434239 377.71302584 9.32906472 385.95687071 1.82272911 393.50152302 C-8.89856492 402.99124212 -19.70944211 404.02500953 -33.38134766 403.88989258 C-35.18659436 403.89775923 -36.9918301 403.90861335 -38.79704285 403.92219543 C-43.658803 403.94962391 -48.51948693 403.93347049 -53.38121843 403.90734696 C-58.49117084 403.88575413 -63.60105407 403.89942991 -68.71102905 403.90763855 C-77.28669073 403.91577466 -85.86192467 403.89523835 -94.4375 403.85766602 C-104.32734935 403.8147096 -114.21636125 403.81829069 -124.10624468 403.8465336 C-133.65524696 403.87263555 -143.20394039 403.86471754 -152.75294113 403.84183311 C-156.80135822 403.83277408 -160.84950169 403.8356256 -164.89790726 403.84833717 C-169.67049787 403.8618531 -174.44210477 403.84544845 -179.21454811 403.80669975 C-180.95750614 403.79723293 -182.70055405 403.79775494 -184.44349861 403.80944061 C-197.15586475 403.88554739 -206.59809239 402.06206177 -216.4375 393.25 C-220.9945762 388.26391035 -225.1540465 382.63720911 -224.859375 375.6796875 C-223.86406921 371.41796908 -222.25063843 368.01797299 -220.1875 364.1875 C-217.97405087 360.01392331 -215.90376413 355.87746479 -214.1953125 351.46875 C-211.38029611 344.25841765 -207.9960476 337.30539904 -204.6875 330.3125 C-204.04204578 328.94348755 -203.39686218 327.57434747 -202.75195312 326.20507812 C-201.78675853 324.15605253 -200.82132287 322.10714366 -199.85482788 320.05873108 C-196.84611711 313.68129408 -193.86369046 307.29174449 -190.88540649 300.90005493 C-188.40956777 295.58698167 -185.93071586 290.27532435 -183.44775391 284.96557617 C-182.81523119 283.61205576 -182.18339658 282.25821357 -181.55224609 280.90405273 C-178.22278462 273.76176548 -174.84978454 266.65520868 -171.28125 259.62890625 C-168.97876 255.06247241 -166.94520806 250.50860025 -165.11328125 245.73876953 C-162.5184955 239.35536896 -159.44924243 233.16344066 -156.5 226.9375 C-155.17568117 224.13477493 -153.8530769 221.33124483 -152.53125 218.52734375 C-152.05869781 217.52615761 -152.05869781 217.52615761 -151.57659912 216.50474548 C-149.60071327 212.30850212 -147.69214428 208.08832295 -145.828125 203.84155273 C-144.5648001 201.03221909 -143.15868261 198.30122517 -141.75 195.5625 C-137.51792449 187.18097085 -133.75543557 178.6033615 -130 170 C-126.43330196 170.60231399 -123.42191371 171.56157501 -120.13671875 173.06640625 C-118.80737305 173.6706543 -118.80737305 173.6706543 -117.45117188 174.28710938 C-116.53916016 174.70798828 -115.62714844 175.12886719 -114.6875 175.5625 C-113.29047852 176.19961914 -113.29047852 176.19961914 -111.86523438 176.84960938 C-109.5746328 177.89506343 -107.28636341 178.94531756 -105 180 C-104.91242432 179.33589111 -104.82484863 178.67178223 -104.73461914 177.98754883 C-103.78012342 174.105806 -102.05371755 170.73746146 -100.24609375 167.19921875 C-99.86695328 166.44518265 -99.48781281 165.69114655 -99.09718323 164.91426086 C-97.88291549 162.50245366 -96.66041782 160.09493075 -95.4375 157.6875 C-94.64201981 156.11160983 -93.84709288 154.53544025 -93.05273438 152.95898438 C-91.47517905 149.82918122 -89.89289102 146.70183087 -88.30810547 143.57568359 C-86.80078283 140.59705642 -85.31018369 137.61109489 -83.83642578 134.61572266 C-80.5783056 128.00303156 -77.2242742 121.54578446 -73.34570312 115.26855469 C-71.02623098 111.35844308 -69.15853383 107.24696108 -67.25 103.125 C-63.70536668 95.57705395 -60.06542448 88.08684436 -56.3203125 80.63671875 C-55.91365356 79.8274292 -55.50699463 79.01813965 -55.0880127 78.18432617 C-53.04147463 74.11547659 -50.98870684 70.04985748 -48.93066406 65.98681641 C-48.16982216 64.47693826 -47.40907568 62.96701203 -46.6484375 61.45703125 C-46.29476105 60.76316818 -45.94108459 60.06930511 -45.57669067 59.35441589 C-43.99341105 56.20416066 -42.86102431 53.44409725 -42 50 C-45.96 48.02 -49.92 46.04 -54 44 C-51.10597056 40.3824632 -49.29467691 38.23114177 -45.8125 35.5625 C-40.99916028 31.80296838 -36.27066737 27.9530039 -31.5625 24.0625 C-30.08340565 22.84236024 -28.60424008 21.62230683 -27.125 20.40234375 C-26.41859375 19.81952637 -25.7121875 19.23670898 -24.984375 18.63623047 C-20.66761754 15.07681751 -16.33779575 11.5337495 -12 8 C-11.06929687 7.23300781 -10.13859375 6.46601562 -9.1796875 5.67578125 C-8.27476562 4.93714844 -7.36984375 4.19851562 -6.4375 3.4375 C-5.22900391 2.44556641 -5.22900391 2.44556641 -3.99609375 1.43359375 C-2 0 -2 0 0 0 Z " fill="#297727" transform="translate(363,64)"/>
<path d="M0 0 C0.73351915 -0.00085442 1.46703829 -0.00170885 2.22278529 -0.00258917 C4.68718851 -0.00423976 7.15152405 0.00127055 9.61592102 0.00672913 C11.37988788 0.00701111 13.14385486 0.00685304 14.90782166 0.00628662 C19.70295586 0.0059991 24.49806517 0.01188853 29.29319358 0.01886058 C34.30203867 0.02510164 39.31088429 0.02569851 44.31973267 0.02688599 C53.80757592 0.02999707 63.29540768 0.03820748 72.78324586 0.04823548 C83.58359206 0.0594035 94.3839388 0.0649088 105.18428934 0.06993091 C127.40410072 0.08039027 149.62390175 0.09798542 171.84370422 0.12025452 C171.84370422 0.78025452 171.84370422 1.44025452 171.84370422 2.12025452 C170.33583262 3.4951675 168.75830662 4.79389913 167.15620422 6.05775452 C165.64993469 7.26238342 165.64993469 7.26238342 164.11323547 8.49134827 C163.57779114 8.91915588 163.0423468 9.3469635 162.49067688 9.78773499 C159.73462258 12.01758147 157.04131387 14.32034868 154.34370422 16.62025452 C149.27818897 20.92866262 144.15672435 25.15817527 138.98823547 29.34291077 C136.80900191 31.09281161 136.80900191 31.09281161 134.84370422 33.12025452 C132.65495968 33.36520767 132.65495968 33.36520767 129.88031006 33.35835266 C128.30542061 33.36209145 128.30542061 33.36209145 126.69871521 33.36590576 C125.54185211 33.35863968 124.38498901 33.3513736 123.19306946 33.34388733 C121.37089149 33.34449913 121.37089149 33.34449913 119.51190186 33.34512329 C116.86538967 33.34532131 114.21912061 33.34203469 111.57264519 33.33351898 C107.38193867 33.32114514 103.19140461 33.3280832 99.0007019 33.33894348 C87.08235646 33.3674161 75.16415672 33.37991665 63.24580383 33.35023499 C56.66616861 33.33401129 50.0869087 33.33925674 43.50731236 33.36803126 C40.02754672 33.38228667 36.54856183 33.38543172 33.06883049 33.36180878 C29.1789419 33.33540858 25.29002303 33.35553021 21.40010071 33.37904358 C19.68606049 33.35599907 19.68606049 33.35599907 17.93739319 33.33248901 C10.39496507 33.42959695 5.49737945 35.021058 -0.15629578 40.12025452 C-3.59781769 44.09541834 -5.28029727 48.02912928 -5.28378773 53.29051399 C-5.28679538 54.14436876 -5.28980302 54.99822354 -5.29290181 55.87795269 C-5.29115144 56.81635743 -5.28940107 57.75476216 -5.28759766 58.72160339 C-5.28971337 59.7182869 -5.29182908 60.71497041 -5.29400891 61.74185646 C-5.30002284 65.09732947 -5.29900776 68.45276503 -5.29814148 71.8082428 C-5.30117209 74.2078457 -5.30469327 76.60744804 -5.30867004 79.00704956 C-5.31656761 84.18315245 -5.32172776 89.35925089 -5.32496071 94.53535843 C-5.33045865 102.7208946 -5.3473583 110.90638912 -5.36630249 119.09190369 C-5.37265944 121.89289277 -5.37896788 124.69388196 -5.38527966 127.49487114 C-5.3876553 128.54493415 -5.3876553 128.54493415 -5.39007894 129.61621056 C-5.40801886 137.58663107 -5.42424273 145.55705453 -5.43925476 153.52748108 C-5.44063063 154.2561244 -5.4420065 154.98476772 -5.44342407 155.73549114 C-5.46533723 167.53386237 -5.47610608 179.33222287 -5.48362551 191.13061084 C-5.49170404 203.24792031 -5.51501949 215.365138 -5.55157918 227.48239505 C-5.57357622 234.95346602 -5.58327743 242.4243481 -5.57707884 249.8954498 C-5.57352119 255.62665998 -5.59080666 261.35766187 -5.61575699 267.08881187 C-5.62267276 269.43613242 -5.62279123 271.78348448 -5.61555672 274.13080406 C-5.60666635 277.33989971 -5.62236652 280.54798966 -5.64404297 283.75700378 C-5.63560043 284.68202418 -5.62715789 285.60704458 -5.61845952 286.56009591 C-5.69766991 292.91908682 -7.23701252 297.51048366 -10.15629578 303.12025452 C-10.81172792 304.51242336 -11.46279689 305.9066636 -12.10746765 307.30384827 C-12.77898487 308.72229505 -13.45154267 310.14024959 -14.12504578 311.55775452 C-14.48723206 312.32273254 -14.84941833 313.08771057 -15.22257996 313.87586975 C-16.75050547 317.10293537 -18.28090002 320.3288282 -19.81108093 323.55482483 C-20.93743567 325.93039192 -22.06251377 328.30656079 -23.18754578 330.68275452 C-23.52620667 331.39552551 -23.86486755 332.10829651 -24.21379089 332.84266663 C-26.31226355 337.27527344 -28.31000773 341.73776419 -30.22550964 346.25282288 C-31.15629578 348.12025452 -31.15629578 348.12025452 -33.15629578 350.12025452 C-33.24787161 309.01480987 -33.31834482 267.90937853 -33.36055709 226.80385224 C-33.36555986 221.94984684 -33.37073715 217.09584164 -33.37602234 212.24183655 C-33.37707158 211.27550047 -33.37812082 210.30916438 -33.37920186 209.31354539 C-33.39660225 193.67127577 -33.42813793 178.029065 -33.46490696 162.38683029 C-33.50232655 146.33382951 -33.52453379 130.28085954 -33.53264976 114.22781694 C-33.53813541 104.32397087 -33.55545506 94.42029119 -33.58796164 84.51649635 C-33.60912208 77.72306443 -33.61549235 70.92971841 -33.61030129 64.13625593 C-33.60774188 60.21803742 -33.61163706 56.30010947 -33.63311768 52.38194275 C-33.65266432 48.79021156 -33.65351384 45.19896475 -33.63989136 41.60721068 C-33.63741613 39.70182976 -33.65459534 37.79645406 -33.67262101 35.89115679 C-33.59335488 24.46004644 -30.5529086 16.62190311 -22.67192078 8.32337952 C-15.9988007 2.47921846 -8.75122166 -0.00612402 0 0 Z " fill="#287626" transform="translate(170.1562957763672,63.87974548339844)"/>
<path d="M0 0 C3.79259576 2.04216695 7.00344184 4.11780358 9 8 C9.5494224 12.23840134 9.29119754 14.43917511 7.3125 18.25 C3.97520532 22.21867475 1.71950578 23.74989007 -3.4375 24.5 C-8.22112622 23.82861386 -9.64370524 22.43434812 -13 19 C-15.55550471 15.51522085 -15.57216273 12.21970013 -15 8 C-10.93468377 1.70250093 -7.64234618 -0.63686218 0 0 Z " fill="#F4FAF4" transform="translate(259,426)"/>
<path d="M0 0 C0.66 0.33 1.32 0.66 2 1 C-1.3 4.3 -4.6 7.6 -8 11 C-8 6.67750434 -5.85084926 5.11604454 -3 2 C-2.01 1.34 -1.02 0.68 0 0 Z " fill="#D3ECD2" transform="translate(175,99)"/>
</svg>
